<svg xmlns="http://www.w3.org/2000/svg" xmlns:xlink="http://www.w3.org/1999/xlink" xml:space="preserve" style="shape-rendering:geometricPrecision;text-rendering:geometricPrecision;image-rendering:optimizeQuality;" viewBox="0 0 8.66666 10.833325" x="0px" y="0px" fill-rule="evenodd" clip-rule="evenodd"><defs><style type="text/css">
   
    .fil1 {fill:none}
    .fil0 {fill:black;fill-rule:nonzero}
   
  </style></defs><g><path class="fil0" d="M2.89846 5.63357l0 -1.01528 0.328811 0c0.124579,0 0.205894,0.00520079 0.243717,0.0153661 0.0581496,0.0151299 0.107083,0.0482244 0.146323,0.0992835 0.0392402,0.0510591 0.0588622,0.117012 0.0588622,0.197618 0,0.0624055 -0.0113465,0.114886 -0.0340394,0.157197 -0.0226929,0.0425512 -0.0512992,0.0758819 -0.0862835,0.100228 -0.034748,0.0241142 -0.0702047,0.040185 -0.106138,0.0479882 -0.0489331,0.00969291 -0.119846,0.0146535 -0.212748,0.0146535l-0.133555 0 0 0.382949 -0.204949 0zm0.204949 -0.843429l0 0.287921 0.112043 0c0.0808465,0 0.134976,-0.00520079 0.162161,-0.0158386 0.027185,-0.0106378 0.0484606,-0.027185 0.064063,-0.049878 0.0153661,-0.0226929 0.0231654,-0.0489331 0.0231654,-0.0789528 0,-0.036878 -0.010874,-0.0673701 -0.032622,-0.0914843 -0.0215118,-0.023874 -0.0491693,-0.0390039 -0.0822638,-0.0449134 -0.0245827,-0.00472835 -0.073752,-0.00685433 -0.147504,-0.00685433l-0.0990433 0zm0.741067 0.843429l0 -1.01528 0.752657 0 0 0.171854 -0.547709 0 0 0.225039 0.50965 0 0 0.170909 -0.50965 0 0 0.276335 0.567094 0 0 0.171146 -0.772043 0zm0.943185 0l0 -1.01528 0.306831 0 0.184146 0.692614 0.18202 -0.692614 0.307535 0 0 1.01528 -0.190291 0 0 -0.799224 -0.201638 0.799224 -0.197382 0 -0.200929 -0.799224 0 0.799224 -0.190291 0z"/></g><path class="fil0" d="M2.40683 4.06374c0,0.0441811 0.0358189,0.08 0.08,0.08 0.0441811,0 0.08,-0.0358189 0.08,-0.08l0 -2.25041 2.80151 0 0.731484 0.731484 0 1.51893c0,0.0441811 0.0358189,0.08 0.08,0.08 0.0441811,0 0.08,-0.0358189 0.08,-0.08l0 -1.55205 -3.93701e-006 0c0,-0.0204724 -0.00780709,-0.0409488 -0.0234291,-0.0565669l-3.93701e-006 3.93701e-006 -0.77802 -0.77802c-0.0145039,-0.0146772 -0.0346378,-0.0237756 -0.0569016,-0.0237756l-2.91464 0c-0.0441811,0 -0.08,0.0358189 -0.08,0.08l0 2.33041zm3.853 2.12438c0,-0.0441811 -0.0358189,-0.08 -0.08,-0.08 -0.0441811,0 -0.08,0.0358189 -0.08,0.08l0 0.665213 -3.533 0 0 -0.665213c0,-0.0441811 -0.0358189,-0.08 -0.08,-0.08 -0.0441811,0 -0.08,0.0358189 -0.08,0.08l0 0.745213c0,0.0441811 0.0358189,0.08 0.08,0.08l3.693 0c0.0441811,0 0.08,-0.0358189 0.08,-0.08l0 -0.745213z"/><path class="fil0" d="M5.48147 1.73333c0,-0.0441811 -0.0358189,-0.08 -0.08,-0.08 -0.0441811,0 -0.08,0.0358189 -0.08,0.08l0 0.389177c0,0.129106 0.0527638,0.246421 0.137756,0.331417 0.0849961,0.0849921 0.202311,0.137756 0.331417,0.137756l0.389177 0c0.0441811,0 0.08,-0.0358189 0.08,-0.08 0,-0.0441811 -0.0358189,-0.08 -0.08,-0.08l-0.389177 0c-0.084937,0 -0.162217,-0.034811 -0.218291,-0.0908819 -0.0560709,-0.0560748 -0.0908819,-0.133354 -0.0908819,-0.218291l0 -0.389177z"/><path class="fil0" d="M2.04518 6.10811l4.5763 0 0 -1.96438 -4.5763 0 0 1.96438zm4.6563 0.16l-4.7363 0c-0.0441811,0 -0.08,-0.0358189 -0.08,-0.08l0 -2.12438c0,-0.0441811 0.0358189,-0.08 0.08,-0.08l4.7363 0c0.0441811,0 0.08,0.0358189 0.08,0.08l0 2.12438c0,0.0441811 -0.0358189,0.08 -0.08,0.08z"/><path class="fil0" d="M3.11986 2.5703c-0.0441811,0 -0.08,0.0358189 -0.08,0.08 0,0.0441811 0.0358189,0.08 0.08,0.08l1.72368 0c0.0441811,0 0.08,-0.0358189 0.08,-0.08 0,-0.0441811 -0.0358189,-0.08 -0.08,-0.08l-1.72368 0z"/><path class="fil0" d="M3.11986 3.01156c-0.0441811,0 -0.08,0.0358189 -0.08,0.08 0,0.0441811 0.0358189,0.08 0.08,0.08l2.42694 0c0.0441811,0 0.08,-0.0358189 0.08,-0.08 0,-0.0441811 -0.0358189,-0.08 -0.08,-0.08l-2.42694 0z"/><path class="fil0" d="M3.11986 3.45282c-0.0441811,0 -0.08,0.0358189 -0.08,0.08 0,0.0441811 0.0358189,0.08 0.08,0.08l2.42694 0c0.0441811,0 0.08,-0.0358189 0.08,-0.08 0,-0.0441811 -0.0358189,-0.08 -0.08,-0.08l-2.42694 0z"/><rect class="fil1" width="8.66666" height="8.66666"/><text x="0" y="23.66666" fill="#000000" font-size="5px" font-weight="bold" font-family="'Helvetica Neue', Helvetica, Arial-Unicode, Arial, Sans-serif">Created by IYIKON</text><text x="0" y="28.66666" fill="#000000" font-size="5px" font-weight="bold" font-family="'Helvetica Neue', Helvetica, Arial-Unicode, Arial, Sans-serif">from the Noun Project</text></svg>