<svg xmlns="http://www.w3.org/2000/svg" width="24" height="24" viewBox="0 0 24 24" fill="none" stroke="currentColor" stroke-width="2" stroke-linecap="round" stroke-linejoin="round" class="icon icon-tabler icons-tabler-outline icon-tabler-sigstore"><path stroke="none" d="M0 0h24v24H0z" fill="none"/><path d="M12 3c2.5 1.2 5 1.8 8 2c.4 6.5 -2.5 13 -8 16c-5.5 -3 -8.4 -9.5 -8 -16c3 -.2 5.5 -.8 8 -2" /><path d="M14 9.5a2.5 2.5 0 0 0 -2.5 -1.5a2.5 2.5 0 0 0 -2.5 2.5c0 1.5 1 2 2.5 2.5s2.5 1 2.5 2.5a2.5 2.5 0 0 1 -2.5 2.5a2.5 2.5 0 0 1 -2.5 -1.5" /><path d="M9.5 11h.01" /><path d="M14.5 13h.01" /></svg>
